<?xml version="1.0" encoding="utf-8"?>
<!-- Generator: Adobe Illustrator 18.1.0, SVG Export Plug-In . SVG Version: 6.00 Build 0)  -->
<!DOCTYPE svg PUBLIC "-//W3C//DTD SVG 1.1//EN" "http://www.w3.org/Graphics/SVG/1.1/DTD/svg11.dtd">
<svg version="1.1" id="Layer_1" xmlns="http://www.w3.org/2000/svg" xmlns:xlink="http://www.w3.org/1999/xlink" x="0px" y="0px"
	 viewBox="0 0 100 100" enable-background="new 0 0 100 100" xml:space="preserve" width="100" height="100">
<g>
	<path fill="#FFFFFF" d="M91.8,24.2l-5.2,3l0-5.6L83,22.2v7.1l-2.7,1.6l0-8.2l-3.5,0.7l0,9.5l-9.7,5.6l1-6.1L62,33.4l2.6-4.5
		l9.5-1.6v-3.5L66.9,25l2.1-3.6l-3-1.8l-2.1,3.6l-2.5-6.9l-3,1.8l3.3,9L59,31.6l-2.1-5.8l-4.7,4l0-11.2l8.2-4.8l-1.2-3.3l-7.1,4.1
		l0-3.1l6.1-3.5L57,4.5l-4.9,2.8l0-6l-3.6,0l0,6l-4.9-2.8l-1.2,3.4l6.1,3.5l0,3.1l-7.1-4.1l-1.2,3.3l8.2,4.8l0,11.2l-4.8-4l-2.1,5.8
		l-2.6-4.5l3.3-9l-3-1.8l-2.5,6.9l-2.1-3.6l-3,1.8l2.1,3.6l-7.2-1.2v3.5l9.5,1.6l2.6,4.5l-6.1-1.1l1,6.1l-9.7-5.6l0-9.5l-3.5-0.7
		l0,8.2l-2.7-1.6v-7.1l-3.5-0.6l0,5.7l-5.2-3l-1.8,3.1l5.2,3l-4.9,2.8l2.3,2.7l6.1-3.5l2.7,1.6l-7.1,4.1l2.3,2.7l8.3-4.7l9.7,5.6
		L26,43.6l4,4.8h-5.2L18.6,41l-3,1.8l4.7,5.6h-4.2v3.5h4.1l-4.7,5.6l3,1.8l6.2-7.4H30l-4,4.8l5.8,2.1l-9.7,5.6l-8.3-4.7l-2.3,2.7
		l7.1,4.1L15.9,68l-6.1-3.5l-2.3,2.7l4.9,2.8l-5.2,3l1.8,3.1l5.2-3l0,5.6l3.5-0.6v-7.1l2.7-1.6l0,8.2l3.5-0.7l0-9.5l9.7-5.6l-1,6.1
		l6.1-1L36,71.4l-9.5,1.6v3.5l7.2-1.2l-2.1,3.6l3,1.8l2.1-3.6l2.5,6.9l3-1.8l-3.3-9l2.6-4.5l2.1,5.8l4.8-3.9l0,11.2l-8.2,4.8
		l1.2,3.3l7.1-4.1l0,3.1l-6.1,3.5l1.2,3.4l4.9-2.8l0,6h3.6l0-6l4.9,2.8l1.2-3.4l-6.1-3.5l0-3.1l7.1,4.1l1.2-3.4l-8.2-4.8l0-11.2
		l4.8,4l2.1-5.8l2.6,4.5l-3.3,9l3,1.8l2.5-6.9l2.1,3.6l3-1.8l-2.1-3.6l7.2,1.2v-3.5l-9.5-1.6l-2.6-4.5l6.1,1.1l-1-6.1l9.7,5.6l0,9.5
		l3.5,0.7l0-8.2l2.7,1.6v7l3.5,0.6l0-5.6l5.2,3l1.8-3.1l-5.2-3l4.9-2.8l-2.3-2.7L84.8,68l-2.7-1.6l7.1-4.1l-2.3-2.7l-8.3,4.7
		l-9.7-5.6l5.8-2.1l-4-4.8h5.2l6.2,7.4l3-1.8l-4.7-5.7h4.2v-3.5h-4.1l4.7-5.6l-3-1.8l-6.2,7.4h-5.2l4-4.8l-5.8-2.1l9.7-5.6l8.3,4.7
		l2.3-2.7l-7.1-4.1l2.7-1.6l6.1,3.5l2.3-2.7l-4.9-2.8l5.2-3L91.8,24.2z M68.9,45.2l-2.7,3.2h-9.3l8.1-4.7L68.9,45.2z M56.9,51.9h9.3
		l2.7,3.2L65,56.6L56.9,51.9z M63.9,36.6l-0.7,4.1l-8.1,4.7l4.7-8.1L63.9,36.6z M55.1,55l8.1,4.7l0.7,4.1L59.8,63L55.1,55z
		 M52.1,56.7l4.7,8.1l-1.5,3.9L52.1,66L52.1,56.7z M55.3,31.6l1.4,3.9l-4.7,8.1l0-9.3L55.3,31.6z M48.6,43.6l-4.7-8.1l1.4-3.9
		l3.2,2.7L48.6,43.6z M45.4,68.7l-1.4-3.9l4.7-8.1l0,9.3L45.4,68.7z M45.6,45.4l-8.1-4.7l-0.7-4.1l4.1,0.7L45.6,45.4z M36.8,63.7
		l0.7-4.1l8.1-4.7L40.9,63L36.8,63.7z M43.8,48.4h-9.3l-2.7-3.2l3.9-1.4L43.8,48.4z M31.8,55.1l2.7-3.2h9.3l-8.1,4.7L31.8,55.1z"/>
</g>
</svg>
