<?xml version="1.0" encoding="utf-8"?>
<!-- Generator: Adobe Illustrator 18.1.0, SVG Export Plug-In . SVG Version: 6.00 Build 0)  -->
<!DOCTYPE svg PUBLIC "-//W3C//DTD SVG 1.1//EN" "http://www.w3.org/Graphics/SVG/1.1/DTD/svg11.dtd">
<svg version="1.1" id="Layer_1" xmlns="http://www.w3.org/2000/svg" xmlns:xlink="http://www.w3.org/1999/xlink" x="0px" y="0px"
   viewBox="0 0 100 100" enable-background="new 0 0 100 100" xml:space="preserve" width="100px" height="100px">
<g>
  <g>
    <path fill="#3C948B" d="M88.1,24.7C85.8,26,84,26,84,24.8c0-1.2-1.4-2.2-3-2.2c-1.7,0-3,1.8-3,4c0,2.2-0.9,4.5-2.1,5.2
      c-1.2,0.7-2.1-1.1-2.1-4c0-2.8-1.4-5.2-3-5.2c-1.7,0-3,2.7-3,5.9v2.1c0,3.2-0.9,6.4-2,7.1c-1.1,0.6-3.1,1.2-4.3,1.2
      c-1.2,0-1-2.2,0.5-4.8c1.5-2.6,2.8-5.7,2.8-6.8c0-1.1-0.8-1.5-1.7-1c-0.9,0.5-2.9,3.2-4.5,5.8c-1.5,2.7-3.3,4-3.9,2.9
      c-0.6-1.1-1.1-3-1.1-4.3c0-1.3,2.3-3.7,5.1-5.4l1.8-1c2.8-1.6,4.4-4.1,3.6-5.6c-0.8-1.5-3.5-1.5-6,0c-2.5,1.4-4.5,1.5-4.5,0.2
      c0-1.3,1.5-3.3,3.4-4.4c1.9-1.1,2.8-3.2,1.9-4.6c-0.8-1.4-2.4-2.1-3.4-1.5c-1.1,0.6-1.9-1-1.9-3.6c0-2.6-1.4-4.7-3-4.7
      c-1.7,0-3,2.1-3,4.7c0,2.6-0.9,4.2-1.9,3.6c-1.1-0.6-2.6,0.1-3.4,1.5c-0.8,1.4,0,3.5,1.9,4.6c1.9,1.1,3.4,3.1,3.4,4.4
      c0,1.3-2,1.2-4.5-0.2c-2.5-1.4-5.2-1.4-6,0c-0.8,1.4,0.8,4,3.6,5.6l1.8,1c2.8,1.6,5.1,4,5.1,5.4c0,1.3-0.5,3.3-1.1,4.3
      c-0.6,1.1-2.4-0.2-3.9-2.9c-1.5-2.7-3.5-5.3-4.5-5.8c-0.9-0.5-1.7-0.1-1.7,1c0,1.1,1.3,4.1,2.8,6.8c1.5,2.6,1.7,4.8,0.5,4.8
      c-1.3,0-3.2-0.5-4.3-1.2c-1.1-0.6-2-3.8-2-7.1v-2.1c0-3.2-1.4-5.9-3-5.9c-1.7,0-3,2.3-3,5.2c0,2.8-0.9,4.6-2.1,4
      c-1.1-0.7-2.1-3-2.1-5.2c0-2.2-1.4-4-3-4c-1.7,0-3,1-3,2.2c0,1.2-1.9,1.1-4.1-0.2c-2.3-1.3-4.8-1.2-5.6,0.3
      c-0.8,1.5,0.3,3.7,2.6,5c2.3,1.3,3.3,2.9,2.2,3.5c-1.1,0.6-1.2,2.3-0.4,3.7c0.8,1.5,3.1,1.7,5,0.6c1.9-1.1,4.4-1.4,5.5-0.8
      c1.2,0.7,0.1,2.4-2.4,3.8c-2.5,1.4-3.8,3.8-3,5.2c0.8,1.4,3.8,1.3,6.6-0.3l1.8-1c2.8-1.6,6-2.4,7.1-1.8c1.1,0.6,2.5,2.1,3.2,3.1
      c0.6,1.1-1.4,2-4.4,2c-3,0-6.3,0.4-7.2,1c-0.9,0.5-0.9,1.4,0,1.9c0.9,0.5,4.2,1,7.3,1c3.1,0,5.1,0.9,4.4,1.9
      c-0.6,1.1-2.1,2.5-3.2,3.1c-1.1,0.7-4.4-0.1-7.2-1.7l-1.8-1c-2.8-1.6-5.8-1.8-6.6-0.3c-0.8,1.4,0.5,3.8,3,5.2
      c2.5,1.4,3.6,3.1,2.4,3.8c-1.1,0.7-3.6,0.3-5.5-0.8c-1.9-1.1-4.1-0.8-5,0.6c-0.8,1.4-0.7,3.1,0.4,3.7c1.1,0.6,0.1,2.2-2.2,3.5
      c-2.3,1.3-3.4,3.5-2.6,5c0.8,1.4,3.4,1.6,5.6,0.3c2.3-1.3,4.1-1.4,4.1-0.2c0,1.2,1.4,2.2,3,2.2c1.7,0,3-1.8,3-4
      c0-2.2,0.9-4.5,2.1-5.2c1.1-0.7,2.1,1.1,2.1,4c0,2.8,1.4,5.2,3,5.2c1.7,0,3-2.7,3-5.9v-2.1c0-3.2,0.9-6.4,2-7.1
      c1.1-0.6,3.1-1.2,4.3-1.2c1.3,0,1,2.2-0.5,4.8c-1.5,2.6-2.8,5.7-2.8,6.7c0,1.1,0.7,1.5,1.7,1c0.9-0.5,2.9-3.1,4.5-5.8
      c1.5-2.6,3.3-3.9,3.9-2.8c0.6,1.1,1.1,3,1.1,4.3c0,1.3-2.3,3.7-5.1,5.3l-1.8,1c-2.8,1.6-4.4,4.1-3.6,5.6c0.8,1.4,3.5,1.5,6,0
      c2.5-1.4,4.5-1.5,4.5-0.2c0,1.3-1.5,3.3-3.4,4.4c-1.9,1.1-2.8,3.2-1.9,4.6c0.8,1.4,2.4,2.1,3.4,1.5c1.1-0.6,1.9,1,1.9,3.6
      c0,2.6,1.4,4.7,3,4.7c1.7,0,3-2.1,3-4.7c0-2.6,0.9-4.3,1.9-3.6c1.1,0.6,2.6-0.1,3.4-1.5c0.8-1.4,0-3.5-1.9-4.6
      c-1.9-1.1-3.4-3.1-3.4-4.4c0-1.3,2-1.2,4.5,0.2c2.5,1.4,5.2,1.4,6,0c0.8-1.5-0.8-4-3.6-5.6l-1.8-1c-2.8-1.6-5.1-4-5.1-5.3
      c0-1.3,0.5-3.2,1.1-4.3c0.6-1.1,2.4,0.2,3.9,2.8c1.5,2.6,3.5,5.2,4.4,5.8c0.9,0.5,1.7,0.1,1.7-1c0-1.1-1.2-4.1-2.8-6.7
      c-1.5-2.6-1.7-4.8-0.5-4.8c1.3,0,3.2,0.5,4.3,1.2c1.1,0.6,2,3.8,2,7.1v2.1c0,3.2,1.4,5.9,3,5.9c1.7,0,3-2.3,3-5.2
      c0-2.8,0.9-4.6,2.1-4c1.1,0.7,2.1,3,2.1,5.2c0,2.2,1.4,4,3,4c1.7,0,3-1,3-2.2c0-1.2,1.8-1.2,4.1,0.2c2.3,1.3,4.8,1.2,5.6-0.3
      c0.8-1.5-0.3-3.7-2.6-5c-2.3-1.3-3.3-2.9-2.2-3.5c1.1-0.6,1.2-2.3,0.4-3.7c-0.8-1.4-3.1-1.7-5-0.6c-1.9,1.1-4.4,1.4-5.5,0.8
      c-1.1-0.7-0.1-2.4,2.4-3.8c2.5-1.4,3.8-3.8,3-5.2c-0.8-1.5-3.8-1.3-6.6,0.3l-1.8,1c-2.8,1.6-6,2.4-7.2,1.7
      c-1.1-0.7-2.6-2.1-3.2-3.1c-0.6-1.1,1.4-1.9,4.5-1.9s6.3-0.4,7.3-1c0.9-0.5,0.9-1.4,0-1.9c-0.9-0.5-4.2-1-7.2-1
      c-3.1,0-5-0.9-4.4-2c0.6-1.1,2-2.5,3.2-3.1c1.1-0.6,4.3,0.1,7.1,1.8l1.8,1c2.8,1.6,5.8,1.8,6.6,0.3c0.8-1.4-0.5-3.8-3-5.2
      c-2.5-1.4-3.5-3.1-2.4-3.8c1.1-0.7,3.6-0.3,5.5,0.8c1.9,1.1,4.1,0.8,5-0.6c0.8-1.4,0.7-3.1-0.4-3.7c-1.1-0.6-0.1-2.2,2.2-3.5
      c2.3-1.3,3.4-3.6,2.6-5C92.9,23.5,90.3,23.3,88.1,24.7z M55.3,54.5c-0.8-1.5-0.2-2.7,1.5-2.7c1.7,0,3.7,1.2,4.6,2.7
      c0.8,1.5,0.2,2.7-1.5,2.7C58.2,57.2,56.1,56,55.3,54.5z M48.8,56.5c0.8-1.5,2.2-1.5,3.1,0c0.8,1.5,0.8,3.9,0,5.4
      c-0.8,1.5-2.2,1.5-3.1,0C47.9,60.4,48,58,48.8,56.5z M43.9,51.9c1.7,0,2.4,1.2,1.5,2.7c-0.8,1.5-2.9,2.7-4.6,2.7
      c-1.7,0-2.4-1.2-1.5-2.7C40.2,53.1,42.3,51.9,43.9,51.9z M45.5,45.3c0.8,1.5,0.1,2.7-1.6,2.7c-1.7,0-3.8-1.2-4.6-2.7
      c-0.8-1.5-0.1-2.7,1.6-2.7C42.6,42.7,44.6,43.9,45.5,45.3z M51.9,43.4c-0.8,1.5-2.2,1.5-3.1,0c-0.8-1.5-0.8-3.9,0-5.3
      c0.8-1.5,2.2-1.5,3.1,0C52.7,39.6,52.7,41.9,51.9,43.4z M61.4,45.3c-0.8,1.5-2.9,2.7-4.6,2.7c-1.7,0-2.4-1.2-1.5-2.7
      c0.8-1.5,2.9-2.7,4.6-2.7C61.5,42.7,62.2,43.9,61.4,45.3z"/>
  </g>
</g>
</svg>
