<?xml version="1.0" encoding="utf-8"?>
<!-- Generator: Adobe Illustrator 18.1.0, SVG Export Plug-In . SVG Version: 6.00 Build 0)  -->
<!DOCTYPE svg PUBLIC "-//W3C//DTD SVG 1.1//EN" "http://www.w3.org/Graphics/SVG/1.1/DTD/svg11.dtd">
<svg version="1.1" id="Layer_1" xmlns="http://www.w3.org/2000/svg" xmlns:xlink="http://www.w3.org/1999/xlink" x="0px" y="0px"
	 viewBox="0 0 100 100" enable-background="new 0 0 100 100" xml:space="preserve" width="100" height="100">
<path fill="#FFFFFF" d="M27.9,26.8c-4-4-8.7-8.7-14.3-14.3C19.2,18,23.9,22.8,27.9,26.8z M31,49.6c-3.4,0-7.5,0-12.3,0
	C23.5,49.6,27.6,49.6,31,49.6z M27.9,72.4c-4,4-8.7,8.7-14.3,14.3C19.2,81.1,23.9,76.4,27.9,72.4z M50.7,29.9c0-3.4,0-7.5,0-12.3
	C50.7,22.4,50.7,26.5,50.7,29.9z M73.5,26.8c4-4,8.7-8.7,14.3-14.3C82.2,18,77.5,22.7,73.5,26.8z M50.7,69.3c0,3.4,0,7.5,0,12.3
	C50.7,76.8,50.8,72.7,50.7,69.3z M70.4,49.6c3.4,0,7.5,0,12.3,0C78,49.6,73.9,49.6,70.4,49.6z M73.5,72.4c4,4,8.7,8.7,14.3,14.3
	C82.2,81.2,77.5,76.4,73.5,72.4z M98.8,28.3L58.6,43.9c1.7-3.4,6.6-8.7,14.9-17.1c-9.2,9.1-14.7,14.2-18,15.4L69.1,0.2L51.6,39.9
	c-0.6-2.1-0.9-5.4-0.9-10c-0.1,6.4-0.4,10.3-1.9,11.8L28.2,1.4l15.3,39.5c-3.4-2.2-8.3-6.9-15.7-14.1c9.4,9.5,14.5,15.1,15.4,18.3
	l-43.2-14l40.3,17.8c-2.1,0.5-5.2,0.7-9.4,0.7c5.7,0.1,9.4,0.4,11.2,1.4L1.3,72l41.2-16c-2,3.4-6.8,8.5-14.6,16.4
	c8.3-8.2,13.5-13.1,16.9-14.8L31,100l18.4-41.7c0.9,1.9,1.2,5.6,1.3,11c0.1-4.7,0.3-8,0.9-10.1l20.3,39.7L55.7,57.1
	c3.3,1.3,8.8,6.3,17.8,15.3c-7.9-8-12.8-13.2-14.7-16.6L100,69.2l-40.9-18c1.8-1.1,5.6-1.4,11.3-1.5c-5.3-0.1-9-0.3-10.9-1.2
	L98.8,28.3z"/>
</svg>
