<?xml version="1.0" encoding="utf-8"?>
<!-- Generator: Adobe Illustrator 18.1.0, SVG Export Plug-In . SVG Version: 6.00 Build 0)  -->
<!DOCTYPE svg PUBLIC "-//W3C//DTD SVG 1.1//EN" "http://www.w3.org/Graphics/SVG/1.1/DTD/svg11.dtd">
<svg version="1.1" id="Layer_1" xmlns="http://www.w3.org/2000/svg" xmlns:xlink="http://www.w3.org/1999/xlink" x="0px" y="0px"
   viewBox="0 0 100 100" enable-background="new 0 0 100 100" xml:space="preserve" width="100" height="100">
<g>
  <polygon fill="#3C948B" points="71.6,94.8 64.4,98.9 50,90.6 35.7,98.9 28.6,94.9 28.6,86.6 43,78.3 43,61.7 50,57.6 57.2,61.7 
    57.2,78.4 71.5,86.6   "/>
  <polygon fill="#3C948B" points="21.6,90.7 14.4,86.6 14.4,69.9 0.1,61.7 0,53.5 7.2,49.4 21.6,57.7 35.9,49.4 43,53.4 43,61.7 
    28.6,70.1 28.6,86.6   "/>
  <polygon fill="#3C948B" points="0.1,45.4 0.1,37.1 14.5,28.8 14.5,12.3 21.5,8.2 28.6,12.3 28.6,28.9 43,37.2 43,45.3 35.9,49.5 
    21.5,41.2 7.2,49.4  "/>
  <polygon fill="#3C948B" points="28.5,4.1 35.7,0 50.1,8.3 64.4,0.1 71.5,4.1 71.5,12.3 57.1,20.7 57.1,37.2 50.1,41.3 42.9,37.2 
    42.9,20.5 28.6,12.3   "/>
  <polygon fill="#3C948B" points="78.5,8.1 85.7,12.3 85.7,28.9 100,37.2 100,45.3 92.9,49.4 78.5,41.1 64.2,49.4 57.1,45.4 
    57.1,37.1 71.5,28.8 71.5,12.3   "/>
  <polygon fill="#3C948B" points="100,53.4 100,61.7 85.6,70 85.6,86.5 78.6,90.7 71.4,86.5 71.4,69.9 57.1,61.6 57,53.5 64.2,49.4 
    78.6,57.7 92.9,49.4   "/>
</g>
</svg>
